<?xml version="1.0" encoding="utf-8"?>
<svg version="1.1" xmlns="http://www.w3.org/2000/svg" width="680px" height="680px">
  <path d="M 167.472 6.513 C 172.893 6.52 178.314 6.515 183.735 6.511 C 194.276 6.506 204.817 6.512 215.358 6.521 C 227.669 6.531 239.98 6.531 252.291 6.531 C 274.257 6.53 296.222 6.539 318.188 6.554 C 339.451 6.568 360.715 6.575 381.979 6.574 C 383.95 6.574 383.95 6.574 385.962 6.574 C 387.274 6.574 388.586 6.574 389.938 6.574 C 414.258 6.574 438.578 6.579 462.899 6.588 C 471.464 6.591 480.029 6.592 488.594 6.593 C 499.02 6.594 509.447 6.598 519.873 6.607 C 525.183 6.612 530.494 6.615 535.804 6.614 C 540.673 6.613 545.542 6.616 550.411 6.623 C 552.163 6.625 553.915 6.625 555.666 6.624 C 586.929 6.596 586.929 6.596 600.693 11.76 C 601.7 12.121 602.706 12.482 603.744 12.854 C 614.594 17.019 624.968 24.036 633.693 31.76 C 635.663 33.504 635.378 33.435 636.693 34.76 C 657.235 56.061 660.83 82.74 660.851 110.848 C 660.856 112.294 660.861 113.739 660.866 115.185 C 660.879 119.11 660.887 123.036 660.893 126.961 C 660.902 131.217 660.915 135.473 660.928 139.73 C 660.953 148.069 660.972 156.408 660.99 164.748 C 661.011 174.547 661.037 184.346 661.064 194.146 C 661.112 211.733 661.155 229.319 661.196 246.906 C 661.234 263.766 661.276 280.627 661.321 297.488 C 661.323 298.516 661.326 299.545 661.329 300.604 C 661.34 304.745 661.351 308.886 661.362 313.027 C 661.408 330.311 661.451 347.594 661.495 364.878 C 661.504 368.741 661.514 372.605 661.524 376.468 C 661.586 400.837 661.639 425.206 661.679 449.575 C 661.69 456.142 661.703 462.71 661.717 469.277 C 661.735 477.995 661.748 486.713 661.757 495.43 C 661.762 499.995 661.768 504.56 661.779 509.125 C 661.82 526.77 661.772 544.411 661.373 562.053 C 661.336 563.685 661.303 565.318 661.272 566.95 C 660.738 594.234 652.215 617.273 632.248 636.482 C 611.095 655.339 586.021 659.087 558.781 659.007 C 556.8 659.009 554.819 659.011 552.839 659.014 C 547.433 659.021 542.027 659.015 536.62 659.007 C 530.776 659 524.931 659.005 519.086 659.008 C 507.651 659.013 496.215 659.008 484.779 658.999 C 472.125 658.989 459.47 658.988 446.816 658.989 C 421.631 658.99 396.447 658.98 371.262 658.964 C 348.918 658.951 326.574 658.944 304.229 658.945 C 302.795 658.945 301.36 658.945 299.926 658.945 C 298.862 658.945 298.862 658.945 297.777 658.945 C 294.206 658.945 290.635 658.945 287.065 658.946 C 286.008 658.946 286.008 658.946 284.93 658.946 C 266.226 658.946 247.522 658.941 228.818 658.935 C 228.152 658.935 227.486 658.935 226.8 658.935 C 223.456 658.933 220.113 658.932 216.769 658.931 C 207.488 658.928 198.207 658.927 188.926 658.927 C 177.607 658.926 166.287 658.921 154.968 658.912 C 149.198 658.908 143.428 658.905 137.658 658.906 C 132.366 658.907 127.075 658.903 121.784 658.896 C 119.879 658.894 117.974 658.894 116.069 658.896 C 98.859 658.91 82.295 658.812 65.693 653.76 C 64.571 653.422 63.45 653.084 62.294 652.736 C 53.249 649.648 46.113 644.629 38.693 638.76 C 37.846 638.099 36.999 637.437 36.126 636.756 C 21.301 624.406 12.734 607.014 7.693 588.76 C 7.42 587.778 7.42 587.778 7.141 586.777 C 5.084 578.113 5.418 569.309 5.446 560.465 C 5.444 558.599 5.442 556.733 5.438 554.867 C 5.432 549.754 5.438 544.641 5.446 539.528 C 5.453 534.007 5.448 528.486 5.444 522.964 C 5.439 512.149 5.445 501.335 5.454 490.52 C 5.464 477.906 5.464 465.293 5.464 452.679 C 5.463 429.469 5.473 406.26 5.488 383.05 C 5.502 361.915 5.508 340.779 5.508 319.644 C 5.508 318.29 5.507 316.935 5.507 315.58 C 5.507 314.91 5.507 314.241 5.507 313.55 C 5.507 310.178 5.507 306.806 5.507 303.433 C 5.507 302.768 5.507 302.102 5.507 301.416 C 5.507 279.906 5.514 258.395 5.521 236.884 C 5.524 228.114 5.526 219.343 5.526 210.573 C 5.527 199.856 5.531 189.139 5.54 178.422 C 5.545 172.964 5.548 167.507 5.547 162.05 C 5.531 72.345 24.018 55.946 20.35 59.377 C 31.855 40.156 41.775 31.689 58.659 21.211 C 76.044 10.422 102.15 7.509 103.155 7.468 C 124.593 6.602 146.019 6.477 167.472 6.513 Z" style="fill: rgb(147, 197, 248);"/>
  <path d="M 400.693 266.76 C 401.351 267.015 402.008 267.27 402.686 267.532 C 423.33 275.638 442.544 288.597 458.693 303.76 C 459.304 304.296 459.915 304.833 460.545 305.385 C 470.978 314.975 475.222 330.788 476.111 344.615 C 477.013 372.82 466.375 400.057 453.693 424.76 C 454.676 424.931 454.676 424.931 455.68 425.105 C 490.7 431.315 527.241 440.562 559.513 455.75 C 562.08 456.939 564.666 458.078 567.256 459.217 C 588.075 468.448 607.189 479.503 625.693 492.76 C 626.506 493.341 627.319 493.921 628.156 494.52 C 637.474 501.207 646.52 508.065 655.127 515.651 C 657.774 517.986 660.299 519.669 662.815 522.098 C 662.815 528.038 662.815 534.259 662.815 540.379 C 659.615 537.677 655.325 532.354 652.271 529.487 C 642.502 520.324 631.664 512.984 620.495 505.646 C 617.187 503.463 613.935 501.231 610.74 498.885 C 599.606 490.73 587.964 484.061 575.693 477.76 C 574.562 477.171 574.562 477.171 573.409 476.571 C 549.228 464.09 522.792 455.199 496.693 447.76 C 495.707 447.47 494.72 447.179 493.704 446.88 C 464.69 438.353 434.634 432.845 404.693 428.76 C 403.912 428.65 403.13 428.539 402.325 428.426 C 401.598 428.323 400.871 428.221 400.123 428.115 C 399.512 428.029 398.9 427.943 398.271 427.854 C 384.48 426.089 370.679 425.598 356.787 425.557 C 355.304 425.55 353.821 425.543 352.338 425.536 C 347.623 425.516 342.908 425.512 338.193 425.51 C 337.39 425.509 336.587 425.509 335.76 425.508 C 310.632 425.495 285.684 425.869 260.693 428.76 C 258.799 428.977 258.799 428.977 256.866 429.198 C 248.768 430.165 240.73 431.38 232.693 432.76 C 231.511 432.959 230.33 433.159 229.112 433.364 C 161.978 444.907 96.387 467.997 40.693 507.76 C 40.019 508.235 39.346 508.711 38.652 509.2 C 30.877 514.695 23.467 520.464 16.346 526.79 C 13.287 529.491 8.918 533.773 5.339 535.742 C 5.435 521.737 5.343 519.085 5.466 515.559 C 8.375 513.532 34.242 496.284 39.548 492.842 C 42.171 491.106 44.729 489.315 47.291 487.49 C 61.187 477.733 76.194 468.732 91.693 461.76 C 92.605 461.348 93.518 460.936 94.458 460.511 C 136.178 441.76 145.667 440.573 145.653 439.961 C 145.141 398.127 160.65 358.026 186.693 325.76 C 187.446 324.802 188.199 323.844 188.974 322.858 C 197.183 312.553 206.366 303.906 216.693 295.76 C 217.598 295.003 218.503 294.247 219.435 293.467 C 241.611 275.438 267.259 264.781 294.693 257.76 C 295.361 257.581 296.029 257.401 296.717 257.217 C 306.778 254.555 332.181 254.381 335.154 254.229 C 351.903 253.372 380.743 258.899 400.693 266.76 Z" fill="#FBFCF6" style=""/>
  <path d="M 464.688 309.887 C 469.668 313.857 479.726 328.89 483.506 334.01 C 484.017 334.698 494.525 350.854 498.609 358.694 C 499.574 360.533 500.578 362.351 501.588 364.166 C 513.959 387.177 520.26 414.72 520.693 440.76 C 478.582 427.816 464.672 427.248 453.693 424.76 C 454.814 421.031 456.214 417.521 457.83 413.987 C 470.305 386.692 480.35 356.709 471.568 326.885 C 470.693 323.76 468.907 316.782 464.688 309.887 Z" fill="#C1D2E3" style=""/>
  <path d="M 340.693 216.76 C 349.533 217.251 380.193 215.77 371.49 222.451 C 364.544 227.224 359.457 229.084 351.068 228.948 C 350.305 228.947 349.542 228.946 348.756 228.946 C 345.488 228.92 342.812 228.8 339.693 227.76 C 339.698 228.4 339.703 229.041 339.709 229.7 C 339.73 232.616 339.743 235.532 339.756 238.448 C 339.764 239.455 339.624 251.504 340.441 254.148 C 337.075 254.237 332.286 254.403 326.508 254.459 C 327.452 249.231 327.044 237.043 327 236.03 C 326.894 233.606 326.792 231.183 326.693 228.76 C 325.794 229.001 325.794 229.001 324.878 229.247 C 317.176 231.055 308.669 230.536 301.693 226.76 C 300.602 226.192 300.602 226.192 299.49 225.612 C 292.237 221.343 286.353 214.934 283.752 206.826 C 283.272 204.464 282.901 202.16 282.693 199.76 C 287.071 199.68 289.532 199.784 292.947 202.655 C 294.467 204.248 295.976 205.853 297.474 207.467 C 305.646 215.912 315.482 216.871 326.693 217.76 C 326.328 213.65 325.976 210.006 322.92 207.037 C 321.519 206.061 320.102 205.108 318.67 204.178 C 315.8 202.119 314.43 199.8 312.693 196.76 C 313.353 196.43 314.013 196.1 314.693 195.76 C 319.923 197.736 322.419 200.426 325.693 204.76 C 326.074 203.946 326.074 203.946 326.463 203.115 C 326.807 202.4 327.151 201.685 327.506 200.948 C 327.842 200.24 328.178 199.532 328.525 198.803 C 329.715 196.722 329.676 194.331 331.516 192.8 C 332.176 192.8 331.39 193.412 333.891 190.551 C 335.364 192.414 336.166 195.623 337.756 198.073 C 338.283 198.873 338.81 199.674 339.353 200.498 C 340.693 202.76 340.693 202.76 341.693 205.76 C 343.673 203.78 345.653 201.8 347.693 199.76 C 349.178 200.255 349.178 200.255 350.693 200.76 C 345.599 208.445 345.599 208.445 341.818 209.76 C 341.117 209.76 340.416 209.76 339.693 209.76 C 340.188 213.225 340.188 213.225 340.693 216.76 Z" fill="#1F2A4E"/>
  <path d="M 298.818 173.322 C 299.759 173.33 300.701 173.339 301.67 173.347 C 311.885 173.595 319.446 175.727 326.966 182.877 C 329.526 185.668 331.562 187.473 333.633 190.643 C 332.339 193.035 332.17 192.462 330.801 195.124 C 328.818 198.322 327.046 204.053 326.693 207.76 C 326.281 207.203 325.868 206.646 325.443 206.072 C 324.866 205.309 324.288 204.546 323.693 203.76 C 323.095 202.893 322.497 202.027 321.881 201.135 C 319.321 198.355 317.314 197.665 313.693 196.76 C 316.442 201.571 319.43 204.318 323.986 207.463 C 325.693 208.76 325.693 208.76 326.693 210.76 C 326.733 213.092 326.736 215.427 326.693 217.76 C 315.603 218.176 307.467 216.936 298.693 209.76 C 297.32 208.361 295.966 206.944 294.631 205.51 C 290.874 201.549 288.052 200.525 282.693 199.76 C 283.044 200.523 283.394 201.286 283.756 202.072 C 284.693 204.76 284.83 204.177 283.83 207.177 C 280.177 198.891 277.733 191.28 280.423 182.33 C 284.24 173.824 290.189 173.226 298.818 173.322 Z" fill="#57BB8C"/>
  <path d="M 379.326 174.315 C 388.715 178.417 387.335 186.636 387.913 189.743 C 387.568 208.306 374.957 207.829 366.524 220.273 C 357.965 223.315 342.464 217.022 339.756 216.933 C 339.638 214.775 339.672 210.929 339.693 209.76 C 340.415 209.574 341.137 209.389 341.881 209.198 C 345.737 207.227 343.501 204.796 340.693 207.76 C 340.511 207.145 340.329 206.53 340.142 205.897 C 339.891 205.088 339.639 204.28 339.381 203.448 C 339.137 202.647 339.019 202.014 338.768 201.19 C 336.615 195.142 335.283 195.107 334.927 191.435 C 336.006 185.346 338.783 182.193 343.693 178.573 C 353.974 172.203 371.251 172.718 379.326 174.315 Z" fill="#5DC391"/>
  <path d="M 379.856 194.393 C 383.869 193.313 383.98 194.071 387.496 194.598 C 385.809 205.443 380.193 215.77 371.49 222.451 C 364.544 227.224 359.457 229.084 351.068 228.948 C 349.923 228.947 349.923 228.947 348.756 228.946 C 345.488 228.92 342.812 228.8 339.693 227.76 C 339.693 235.02 339.588 222.85 339.693 216.76 C 340.972 216.822 342.251 216.884 343.568 216.948 C 352.254 216.934 360.157 214.233 366.4 208.076 C 373.692 198.905 375.839 195.032 379.856 194.393 Z" fill="#267879"/>
  <path d="M 316.92 360.346 C 317.689 361.072 318.622 362.755 319.733 364.088 C 323.296 368.364 328.673 370.529 334.197 370.951 C 338.839 370.567 344.022 369.138 346.743 366.259 C 349.633 363.2 349.731 359.548 354.256 358.741 C 357.485 358.119 359.822 359.801 360.379 362.011 C 360.993 363.851 361.061 365.313 360.666 366.635 C 358.99 372.465 356.782 376.437 350.578 380.01 C 345.483 382.665 338.113 384.114 336.822 384.123 C 327.94 384.182 321.022 382.89 313.693 377.76 C 310.205 374.666 307.447 370.441 307.01 366.897 C 307.019 363.085 308.334 361.153 309.477 360.188 C 311.311 358.367 315.012 358.36 316.92 360.346 Z" fill="#0F1A48"/>
  <path d="M 231.13 372.614 C 235.755 374.953 238.51 376.774 241.068 382.096 C 241.61 386.896 242.204 388.757 240.006 393.073 C 236.992 396.575 234.454 398.494 229.826 399.194 C 223.205 399.202 218.954 398.925 213.693 394.76 C 210.283 390.912 208.969 387.779 209.24 382.717 C 210.262 378.303 212.117 375.481 216.818 372.885 C 220.684 370.986 227.382 371.043 231.13 372.614 Z" fill="#F5BABC"/>
  <path d="M 444.926 369.76 C 449.654 371.467 453.243 373.395 455.771 378.504 C 457.142 381.773 457.04 384.861 455.926 388.76 C 453.644 392.467 452.667 394.047 447.216 396.215 C 439.256 398.224 433.843 396.53 429.463 392.836 C 427.667 391.109 425.762 389.005 425.121 386.772 C 424.323 381.984 424.94 378.18 427.598 374.354 C 432.839 369.819 438.134 368.07 444.926 369.76 Z" fill="#F8C7C8"/>
  <path d="M 282.693 199.76 C 287.071 199.68 289.532 199.784 292.947 202.655 C 294.467 204.248 295.976 205.853 297.474 207.467 C 305.172 215.423 316.024 216.876 326.647 217.679 C 326.508 221.233 326.635 227.995 326.623 228.652 C 319.879 231.793 312.504 231.036 305.443 228.635 C 304.172 228.053 302.922 227.425 301.693 226.76 C 300.966 226.381 300.239 226.002 299.49 225.612 C 292.237 221.343 286.353 214.934 283.752 206.826 C 283.272 204.464 282.901 202.16 282.693 199.76 Z" fill="#277470"/>
  <path d="M 292.693 173.76 C 292.693 174.42 292.693 175.08 292.693 175.76 C 291.301 176.1 291.301 176.1 289.881 176.448 C 286.119 177.996 285.341 179.118 283.693 182.76 C 280.95 190.242 282.3 199.899 284.017 207.505 C 280.577 200.113 279.236 195.163 279.377 187.705 C 279.836 183.432 281.06 180.16 283.693 176.76 C 287.089 174.044 288.26 173.76 292.693 173.76 Z" fill="#65AE93"/>
  <path d="M 312.693 195.76 C 319.264 196.943 321.729 199.556 325.693 204.76 C 326.353 205.42 327.013 206.08 327.693 206.76 C 327.318 208.885 327.318 208.885 326.693 210.76 C 325.016 209.439 323.352 208.102 321.693 206.76 C 321.092 206.289 320.491 205.819 319.872 205.334 C 316.314 202.453 313.909 200.355 312.693 195.76 Z" fill="#186253"/>
  <path d="M 343.693 178.76 C 344.353 179.09 345.013 179.42 345.693 179.76 C 344.862 180.756 344.862 180.756 344.013 181.772 C 342.927 183.096 342.927 183.096 341.818 184.448 C 340.739 185.753 340.739 185.753 339.638 187.084 C 337.804 189.608 336.916 191.701 335.91 194.638 C 333.659 190.601 334.581 192.095 333.616 190.686 C 335.841 186.337 339.525 181.539 343.693 178.76 Z" fill="#68BDA4"/>
  <path d="M 290.693 217.76 C 295.635 218.9 298.302 220.006 301.693 223.76 C 302.683 224.09 303.673 224.42 304.693 224.76 C 304.693 225.42 304.693 226.08 304.693 226.76 C 300.498 226.223 298.15 224.906 294.88 222.26 C 294.09 221.631 293.3 221.002 292.486 220.354 C 291.894 219.828 291.302 219.302 290.693 218.76 C 290.693 218.43 290.693 218.1 290.693 217.76 Z" fill="#356B75"/>
  <path d="M 339.305 205.917 C 342.326 203.436 347.141 197.32 353.991 195.972 C 351.223 201.622 345.881 206.87 339.605 210.885 C 339.319 209.444 339.305 206.597 339.305 205.917 Z" fill="#256948"/>
  <ellipse style="fill: rgb(23, 36, 87);" cx="267.593" cy="358.183" rx="17.115" ry="17.115"/>
  <ellipse style="fill: rgb(23, 36, 87); stroke-width: 1;" cx="399.27" cy="358.123" rx="17.115" ry="17.115"/>
</svg>