<?xml version="1.0" encoding="utf-8"?>
<svg version="1.1" xmlns="http://www.w3.org/2000/svg" width="680px" height="680px">
  <ellipse style="fill: rgb(127, 199, 248);" cx="331.842" cy="334.537" rx="321.742" ry="321.742"/>
  <path d="M 399.693 255.76 C 400.022 255.888 400.351 256.015 400.682 256.143 C 401.013 256.272 401.347 256.401 401.686 256.532 C 412.008 260.585 421.972 265.851 431.375 272 C 440.778 278.148 449.619 285.179 457.693 292.76 C 457.999 293.028 458.304 293.296 458.612 293.567 C 458.92 293.837 459.23 294.109 459.545 294.385 C 464.762 299.18 468.431 305.531 470.907 312.411 C 473.383 319.292 474.667 326.702 475.111 333.615 C 475.562 347.718 473.128 361.578 468.996 375.001 C 464.864 388.424 459.034 401.409 452.693 413.76 C 453.185 413.846 453.43 413.888 453.679 413.931 C 453.927 413.975 454.178 414.018 454.68 414.105 C 472.19 417.21 490.08 421.074 507.627 426.061 C 525.174 431.047 542.377 437.156 558.513 444.75 C 559.797 445.345 561.085 445.927 562.376 446.502 C 563.667 447.078 564.961 447.648 566.256 448.217 C 576.666 452.833 585.413 457.154 593.872 461.979 C 602.33 466.804 610.201 471.834 619.453 478.462 C 619.86 478.753 618.266 481.645 616.646 484.468 C 615.026 487.291 613.55 490.345 613.381 490.217 C 609.475 487.272 601.128 481.779 594.409 477.746 C 587.69 473.712 580.829 469.911 574.693 466.76 C 574.128 466.466 573.845 466.318 573.559 466.17 C 573.274 466.021 572.986 465.871 572.409 465.571 C 560.319 459.331 547.664 453.988 534.77 449.275 C 521.876 444.562 508.743 440.48 495.693 436.76 C 495.2 436.615 494.707 436.47 494.21 436.323 C 493.713 436.177 493.212 436.03 492.704 435.88 C 478.197 431.617 463.43 428.108 448.546 425.154 C 433.663 422.201 418.664 419.803 403.693 417.76 C 403.303 417.705 402.912 417.65 402.518 417.594 C 402.124 417.539 401.728 417.483 401.325 417.426 C 400.962 417.375 400.598 417.323 400.232 417.272 C 399.866 417.22 399.497 417.168 399.123 417.115 C 398.818 417.072 398.512 417.029 398.204 416.986 C 397.896 416.942 397.586 416.899 397.271 416.854 C 390.376 415.972 383.478 415.408 376.567 415.059 C 369.656 414.711 362.733 414.578 355.787 414.557 C 355.046 414.554 354.304 414.55 353.563 414.547 C 352.821 414.543 352.08 414.54 351.338 414.536 C 348.981 414.526 346.623 414.52 344.266 414.516 C 341.908 414.513 339.551 414.511 337.193 414.51 C 336.792 414.51 336.39 414.509 335.986 414.509 C 335.581 414.509 335.174 414.509 334.76 414.508 C 322.196 414.502 309.677 414.592 297.175 415.045 C 284.673 415.498 272.188 416.315 259.693 417.76 C 258.746 417.869 258.273 417.923 257.794 417.978 C 257.316 418.032 256.833 418.088 255.866 418.198 C 251.817 418.682 247.783 419.227 243.757 419.824 C 239.73 420.421 235.712 421.07 231.693 421.76 C 231.102 421.86 230.511 421.959 229.916 422.06 C 229.321 422.16 228.721 422.262 228.112 422.364 C 194.545 428.136 163.952 434.958 134.789 445.308 C 105.625 455.658 77.892 469.536 50.045 489.417 C 49.708 489.655 48.82 488.149 47.693 485.93 C 46.565 483.712 45.197 480.782 43.9 478.17 C 43.875 478.119 43.832 478.155 44.116 477.976 C 44.4 477.797 45.01 477.403 46.291 476.49 C 53.239 471.612 60.465 466.922 67.891 462.581 C 75.317 458.239 82.944 454.246 90.693 450.76 C 91.149 450.554 91.605 450.348 92.065 450.14 C 92.525 449.933 92.988 449.724 93.458 449.511 C 114.318 440.136 127.12 435.151 134.706 432.434 C 142.291 429.717 144.66 429.267 144.653 428.961 C 144.397 408.044 148.146 387.56 155.215 368.273 C 162.284 348.985 172.672 330.893 185.693 314.76 C 186.07 314.281 186.446 313.802 186.825 313.32 C 187.205 312.837 187.587 312.351 187.974 311.858 C 192.079 306.706 196.427 301.968 201.039 297.499 C 205.652 293.031 210.53 288.833 215.693 284.76 C 216.146 284.382 216.598 284.003 217.054 283.622 C 217.51 283.241 217.969 282.857 218.435 282.467 C 229.523 273.453 241.479 266.281 254.092 260.486 C 266.706 254.69 279.976 250.271 293.693 246.76 C 294.027 246.671 294.361 246.581 294.698 246.49 C 295.034 246.4 295.373 246.309 295.717 246.217 C 300.748 244.886 309.614 244.177 317.594 243.782 C 325.574 243.387 332.668 243.305 334.154 243.229 C 342.529 242.801 353.926 243.968 365.723 246.225 C 377.52 248.483 389.718 251.83 399.693 255.76 Z" fill="#FBFCF6" style=""/>
  <path d="M 463.688 298.887 C 468.668 302.857 478.726 317.89 482.506 323.01 C 483.017 323.698 493.525 339.854 497.609 347.694 C 498.574 349.533 499.578 351.351 500.588 353.166 C 512.959 376.177 519.26 403.72 519.693 429.76 C 477.582 416.816 463.672 416.248 452.693 413.76 C 453.814 410.031 455.214 406.521 456.83 402.987 C 469.305 375.692 479.35 345.709 470.568 315.885 C 469.693 312.76 467.907 305.782 463.688 298.887 Z" fill="#C1D2E3" style=""/>
  <path d="M 339.693 205.76 C 348.533 206.251 379.193 204.77 370.49 211.451 C 363.544 216.224 358.457 218.084 350.068 217.948 C 349.305 217.947 348.542 217.946 347.756 217.946 C 344.488 217.92 341.812 217.8 338.693 216.76 C 338.698 217.4 338.703 218.041 338.709 218.7 C 338.73 221.616 338.743 224.532 338.756 227.448 C 338.764 228.455 338.624 240.504 339.441 243.148 C 336.075 243.237 331.286 243.403 325.508 243.459 C 326.452 238.231 326.044 226.043 326 225.03 C 325.894 222.606 325.792 220.183 325.693 217.76 C 324.794 218.001 324.794 218.001 323.878 218.247 C 316.176 220.055 307.669 219.536 300.693 215.76 C 299.602 215.192 299.602 215.192 298.49 214.612 C 291.237 210.343 285.353 203.934 282.752 195.826 C 282.272 193.464 281.901 191.16 281.693 188.76 C 286.071 188.68 288.532 188.784 291.947 191.655 C 293.467 193.248 294.976 194.853 296.474 196.467 C 304.646 204.912 314.482 205.871 325.693 206.76 C 325.328 202.65 324.976 199.006 321.92 196.037 C 320.519 195.061 319.102 194.108 317.67 193.178 C 314.8 191.119 313.43 188.8 311.693 185.76 C 312.353 185.43 313.013 185.1 313.693 184.76 C 318.923 186.736 321.419 189.426 324.693 193.76 C 325.074 192.946 325.074 192.946 325.463 192.115 C 325.807 191.4 326.151 190.685 326.506 189.948 C 326.842 189.24 327.178 188.532 327.525 187.803 C 328.715 185.722 328.676 183.331 330.516 181.8 C 331.176 181.8 330.39 182.412 332.891 179.551 C 334.364 181.414 335.166 184.623 336.756 187.073 C 337.283 187.873 337.81 188.674 338.353 189.498 C 339.693 191.76 339.693 191.76 340.693 194.76 C 342.673 192.78 344.653 190.8 346.693 188.76 C 348.178 189.255 348.178 189.255 349.693 189.76 C 344.599 197.445 344.599 197.445 340.818 198.76 C 340.117 198.76 339.416 198.76 338.693 198.76 C 339.188 202.225 339.188 202.225 339.693 205.76 Z" fill="#1F2A4E" style=""/>
  <path d="M 297.818 162.322 C 298.759 162.33 299.701 162.339 300.67 162.347 C 310.885 162.595 318.446 164.727 325.966 171.877 C 328.526 174.668 330.562 176.473 332.633 179.643 C 331.339 182.035 331.17 181.462 329.801 184.124 C 327.818 187.322 326.046 193.053 325.693 196.76 C 325.281 196.203 324.868 195.646 324.443 195.072 C 323.866 194.309 323.288 193.546 322.693 192.76 C 322.095 191.893 321.497 191.027 320.881 190.135 C 318.321 187.355 316.314 186.665 312.693 185.76 C 315.442 190.571 318.43 193.318 322.986 196.463 C 324.693 197.76 324.693 197.76 325.693 199.76 C 325.733 202.092 325.736 204.427 325.693 206.76 C 314.603 207.176 306.467 205.936 297.693 198.76 C 296.32 197.361 294.966 195.944 293.631 194.51 C 289.874 190.549 287.052 189.525 281.693 188.76 C 282.044 189.523 282.394 190.286 282.756 191.072 C 283.693 193.76 283.83 193.177 282.83 196.177 C 279.177 187.891 276.733 180.28 279.423 171.33 C 283.24 162.824 289.189 162.226 297.818 162.322 Z" fill="#57BB8C" style=""/>
  <path d="M 378.326 163.315 C 387.715 167.417 386.335 175.636 386.913 178.743 C 386.568 197.306 373.957 196.829 365.524 209.273 C 356.965 212.315 341.464 206.022 338.756 205.933 C 338.638 203.775 338.672 199.929 338.693 198.76 C 339.415 198.574 340.137 198.389 340.881 198.198 C 344.737 196.227 342.501 193.796 339.693 196.76 C 339.511 196.145 339.329 195.53 339.142 194.897 C 338.891 194.088 338.639 193.28 338.381 192.448 C 338.137 191.647 338.019 191.014 337.768 190.19 C 335.615 184.142 334.283 184.107 333.927 180.435 C 335.006 174.346 337.783 171.193 342.693 167.573 C 352.974 161.203 370.251 161.718 378.326 163.315 Z" fill="#5DC391"/>
  <path d="M 378.856 183.393 C 382.869 182.313 382.98 183.071 386.496 183.598 C 384.809 194.443 379.193 204.77 370.49 211.451 C 363.544 216.224 358.457 218.084 350.068 217.948 C 348.923 217.947 348.923 217.947 347.756 217.946 C 344.488 217.92 341.812 217.8 338.693 216.76 C 338.693 224.02 338.588 211.85 338.693 205.76 C 339.972 205.822 341.251 205.884 342.568 205.948 C 351.254 205.934 359.157 203.233 365.4 197.076 C 372.692 187.905 374.839 184.032 378.856 183.393 Z" fill="#267879"/>
  <path d="M 315.92 349.346 C 316.689 350.072 317.622 351.755 318.733 353.088 C 322.296 357.364 327.673 359.529 333.197 359.951 C 337.839 359.567 343.022 358.138 345.743 355.259 C 348.633 352.2 348.731 348.548 353.256 347.741 C 356.485 347.119 358.822 348.801 359.379 351.011 C 359.993 352.851 360.061 354.313 359.666 355.635 C 357.99 361.465 355.782 365.437 349.578 369.01 C 344.483 371.665 337.113 373.114 335.822 373.123 C 326.94 373.182 320.022 371.89 312.693 366.76 C 309.205 363.666 306.447 359.441 306.01 355.897 C 306.019 352.085 307.334 350.153 308.477 349.188 C 310.311 347.367 314.012 347.36 315.92 349.346 Z" fill="#0F1A48"/>
  <path d="M 230.13 361.614 C 234.755 363.953 237.51 365.774 240.068 371.096 C 240.61 375.896 241.204 377.757 239.006 382.073 C 235.992 385.575 233.454 387.494 228.826 388.194 C 222.205 388.202 217.954 387.925 212.693 383.76 C 209.283 379.912 207.969 376.779 208.24 371.717 C 209.262 367.303 211.117 364.481 215.818 361.885 C 219.684 359.986 226.382 360.043 230.13 361.614 Z" fill="#F5BABC"/>
  <path d="M 443.926 358.76 C 448.654 360.467 452.243 362.395 454.771 367.504 C 456.142 370.773 456.04 373.861 454.926 377.76 C 452.644 381.467 451.667 383.047 446.216 385.215 C 438.256 387.224 432.843 385.53 428.463 381.836 C 426.667 380.109 424.762 378.005 424.121 375.772 C 423.323 370.984 423.94 367.18 426.598 363.354 C 431.839 358.819 437.134 357.07 443.926 358.76 Z" fill="#F8C7C8"/>
  <path d="M 281.693 188.76 C 286.071 188.68 288.532 188.784 291.947 191.655 C 293.467 193.248 294.976 194.853 296.474 196.467 C 304.172 204.423 315.024 205.876 325.647 206.679 C 325.508 210.233 325.635 216.995 325.623 217.652 C 318.879 220.793 311.504 220.036 304.443 217.635 C 303.172 217.053 301.922 216.425 300.693 215.76 C 299.966 215.381 299.239 215.002 298.49 214.612 C 291.237 210.343 285.353 203.934 282.752 195.826 C 282.272 193.464 281.901 191.16 281.693 188.76 Z" fill="#277470"/>
  <path d="M 291.693 162.76 C 291.693 163.42 291.693 164.08 291.693 164.76 C 290.301 165.1 290.301 165.1 288.881 165.448 C 285.119 166.996 284.341 168.118 282.693 171.76 C 279.95 179.242 281.3 188.899 283.017 196.505 C 279.577 189.113 278.236 184.163 278.377 176.705 C 278.836 172.432 280.06 169.16 282.693 165.76 C 286.089 163.044 287.26 162.76 291.693 162.76 Z" fill="#65AE93"/>
  <path d="M 311.693 184.76 C 318.264 185.943 320.729 188.556 324.693 193.76 C 325.353 194.42 326.013 195.08 326.693 195.76 C 326.318 197.885 326.318 197.885 325.693 199.76 C 324.016 198.439 322.352 197.102 320.693 195.76 C 320.092 195.289 319.491 194.819 318.872 194.334 C 315.314 191.453 312.909 189.355 311.693 184.76 Z" fill="#186253"/>
  <path d="M 342.693 167.76 C 343.353 168.09 344.013 168.42 344.693 168.76 C 343.862 169.756 343.862 169.756 343.013 170.772 C 341.927 172.096 341.927 172.096 340.818 173.448 C 339.739 174.753 339.739 174.753 338.638 176.084 C 336.804 178.608 335.916 180.701 334.91 183.638 C 332.659 179.601 333.581 181.095 332.616 179.686 C 334.841 175.337 338.525 170.539 342.693 167.76 Z" fill="#68BDA4"/>
  <path d="M 289.693 206.76 C 294.635 207.9 297.302 209.006 300.693 212.76 C 301.683 213.09 302.673 213.42 303.693 213.76 C 303.693 214.42 303.693 215.08 303.693 215.76 C 299.498 215.223 297.15 213.906 293.88 211.26 C 293.09 210.631 292.3 210.002 291.486 209.354 C 290.894 208.828 290.302 208.302 289.693 207.76 C 289.693 207.43 289.693 207.1 289.693 206.76 Z" fill="#356B75"/>
  <path d="M 338.305 194.917 C 341.326 192.436 346.141 186.32 352.991 184.972 C 350.223 190.622 344.881 195.87 338.605 199.885 C 338.319 198.444 338.305 195.597 338.305 194.917 Z" fill="#256948"/>
  <ellipse style="fill: rgb(23, 36, 87);" cx="266.593" cy="347.183" rx="17.115" ry="17.115"/>
  <ellipse style="fill: rgb(23, 36, 87); stroke-width: 1;" cx="398.27" cy="347.123" rx="17.115" ry="17.115"/>
</svg>